<svg width="136" height="36" viewBox="0 0 136 36" fill="none" xmlns="http://www.w3.org/2000/svg">
  <!-- Icon -->
  <g transform="translate(0, 0)">
    <path d="M18 2 L34 11 L34 25 L18 34 L2 25 L2 11 Z" fill="none" stroke="#0288D1" stroke-width="1.2" opacity="0.9"/>
    <path d="M18 5 L31 12.5 L31 23.5 L18 31 L5 23.5 L5 12.5 Z" fill="none" stroke="#4FC3F7" stroke-width="0.8" opacity="0.4"/>
    <!-- Top cube -->
    <path d="M18 10 L25 14 L25 22 L18 26 L11 22 L11 14 Z" fill="#4FC3F7" opacity="0.95"/>
    <path d="M18 10 L25 14 L18 18 L11 14 Z" fill="#81D4FA"/>
    <path d="M11 14 L18 18 L18 26 L11 22 Z" fill="#0288D1"/>
    <path d="M18 18 L25 14 L25 22 L18 26 Z" fill="#01579B"/>
    <!-- Bottom left cube -->
    <path d="M9 20 L15 23 L15 29 L9 32 L3 29 L3 23 Z" fill="#4FC3F7" opacity="0.85"/>
    <path d="M9 20 L15 23 L9 26 L3 23 Z" fill="#81D4FA"/>
    <path d="M3 23 L9 26 L9 32 L3 29 Z" fill="#0288D1"/>
    <path d="M9 26 L15 23 L15 29 L9 32 Z" fill="#01579B"/>
    <!-- Bottom center cube -->
    <path d="M18 22 L24 25 L24 31 L18 34 L12 31 L12 25 Z" fill="#4FC3F7" opacity="0.9"/>
    <path d="M18 22 L24 25 L18 28 L12 25 Z" fill="#81D4FA"/>
    <path d="M12 25 L18 28 L18 34 L12 31 Z" fill="#0288D1"/>
    <path d="M18 28 L24 25 L24 31 L18 34 Z" fill="#01579B"/>
    <!-- Bottom right cube -->
    <path d="M27 20 L33 23 L33 29 L27 32 L21 29 L21 23 Z" fill="#4FC3F7" opacity="0.85"/>
    <path d="M27 20 L33 23 L27 26 L21 23 Z" fill="#81D4FA"/>
    <path d="M21 23 L27 26 L27 32 L21 29 Z" fill="#0288D1"/>
    <path d="M27 26 L33 23 L33 29 L27 32 Z" fill="#01579B"/>
  </g>
  <!-- Registry text -->
  <text x="42" y="25" fill="#0F2139" font-family="Roboto, sans-serif" font-size="18" font-weight="700" letter-spacing="0.2">Registry</text>
</svg>
